<svg enable-background="new 0 0 1024 1024" height="1024" image-rendering="optimizeSpeed" viewBox="0 0 1024 1024" width="1024" xmlns="http://www.w3.org/2000/svg"><path d="m969.65 351.3q-8.6-20.85-19.4-40.85c-4.05-7.55-8.35-15.05-12.9-22.4-19.55-31.7-43.4-61.65-71.55-89.8-92.15-92.15-203.45-138.25-333.8-138.25s-241.6 46.1-333.75 138.25-138.25 203.4-138.25 333.75 46.1 241.65 138.25 333.8 203.4 138.2 333.75 138.2 241.65-46.05 333.8-138.2c50.75-50.8 87.55-107.4 110.35-169.75 18.55-50.85 27.85-105.5 27.85-164.05 0-44.9-5.45-87.55-16.4-127.95-1.25-4.55-2.55-9.1-3.9-13.6-4.1-13.3-8.8-26.35-14.05-39.15z" fill-opacity=".098039"/><path d="m966.1 378.45c-1-3.4-2-6.85-3.15-10.5-1.6-5.15-3.4-10.5-5.3-15.85-6.45-18.25-14.15-36.05-23.15-53.65-3.8-7.4-7.95-14.95-12.3-22.4-20.3-34.5-45.8-67.2-76.35-97.75-72.6-72.6-157.15-116.65-253.65-132.05-16.25-2.6-32.8-4.4-50.05-5.35-9.7-.55-19.85-.85-30.1-.85-9.35 0-18.6.25-27.9.75-118.35 6.1-220.3 51.95-305.85 137.5q-138.25 138.25-138.25 333.75c0 130.35 46.1 241.65 138.25 333.8 56.7 56.65 120.55 95.9 191.1 117.55 36.75 11.25 74.8 17.85 114.75 19.95h.4c8.5.45 16.6.7 24.5.7h3c10.3 0 20.5-.3 30.1-.8 2.5-.15 4.75-.3 6.95-.45 20.2-1.45 39.9-4.05 58.7-7.7 7.95-1.55 15.8-3.3 23.4-5.15 80.8-20.3 152.15-61.6 214.65-124.1 48.6-48.6 84.4-102.5 107.35-161.8 18.45-47.65 28.65-98.8 30.55-153.5.2-6.05.3-12.25.3-18.5 0-.65 0-1.35 0-2 0-.35 0-.65 0-1-.2-40.65-4.95-79.5-14.3-117-1.1-4.35-2.35-9-3.65-13.6z" fill="#ffebd8"/><path d="m804.3 358.2-38.15-30.7-496.625 6.575 98.525 98.525-147.775-52.375 6.625 302.475 301.125 301.125q7.108-.197 14.125-.575c2.5-.15 4.75-.3 6.95-.45 20.2-1.45 39.9-4.05 58.7-7.7 7.95-1.55 15.8-3.3 23.4-5.15 80.8-20.3 152.15-61.6 214.65-124.1 48.6-48.6 84.4-102.5 107.35-161.8 17.65-45.6 27.75-94.4 30.3-146.65l-.025-.025z" fill-opacity=".098039"/><path d="m766.15 334.15c5.85-2.25 5.85-4.4 0-6.65l-242.95-92.05c-5.75-2.15-11.5-2.15-17.3 0l-242.95 92.05c-5.75 2.25-5.75 4.4 0 6.65l242.95 92.05c5.8 2.15 11.55 2.15 17.3 0zm38.15 24.05q0-8.7-7.2-5.85l-261.65 102.45c-4.85 1.9-7.2 5.7-7.2 11.5v202.225l48.325-18.775h.025c5.3-2.05 10.55-1.95 15.8.4 5.25 2.3 8.9 6.1 10.95 11.45 2.05 5.3 1.95 10.55-.35 15.8-2.35 5.25-6.15 8.9-11.45 10.95h-.025l-63.275 24.575v70.825c0 5.8 2.35 7.75 7.2 5.85l261.65-102.45c4.8-1.85 7.2-5.75 7.2-11.55zm-152.2 151.2v-70.7l129.85-48v70.7zm-425.1-157.05c-4.8-1.9-7.2.05-7.2 5.85v317.4c0 5.8 2.4 9.7 7.2 11.55l261.65 102.45c4.75 1.9 7.2-.05 7.2-5.85v-70.825l-63.3-24.575c-5.35-2.1-9.15-5.75-11.45-11s-2.4-10.55-.3-15.85c2.05-5.3 5.75-9.1 11-11.4s10.5-2.4 15.75-.35l48.3 18.75v-202.2c0-5.8-2.45-9.6-7.2-11.5z" fill="#de8654"/></svg>